<svg width="16" height="16" viewBox="0 0 16 16" fill="none" xmlns="http://www.w3.org/2000/svg">
<path d="M0 13.4737V11.1158C0 10.6386 0.122807 10.2 0.368421 9.8C0.614035 9.4 0.940351 9.09474 1.34737 8.88421C2.21754 8.44912 3.10175 8.12281 4 7.90526C4.89825 7.68772 5.81053 7.57895 6.73684 7.57895C7.01754 7.57895 7.29825 7.58947 7.57895 7.61053C7.85965 7.63158 8.14035 7.66316 8.42105 7.70526C8.36491 8.5193 8.51228 9.28772 8.86316 10.0105C9.21404 10.7333 9.72632 11.3263 10.4 11.7895V13.4737H0ZM13.4737 16L12.2105 14.7368V10.8211C11.593 10.6386 11.0877 10.2912 10.6947 9.77895C10.3018 9.26667 10.1053 8.67368 10.1053 8C10.1053 7.18597 10.393 6.49123 10.9684 5.91579C11.5439 5.34035 12.2386 5.05263 13.0526 5.05263C13.8667 5.05263 14.5614 5.34035 15.1368 5.91579C15.7123 6.49123 16 7.18597 16 8C16 8.63158 15.8211 9.19298 15.4632 9.68421C15.1053 10.1754 14.6526 10.5263 14.1053 10.7368L15.1579 11.7895L13.8947 13.0526L15.1579 14.3158L13.4737 16ZM6.73684 6.73684C5.81053 6.73684 5.01754 6.40702 4.35789 5.74737C3.69825 5.08772 3.36842 4.29474 3.36842 3.36842C3.36842 2.44211 3.69825 1.64912 4.35789 0.989474C5.01754 0.329825 5.81053 0 6.73684 0C7.66316 0 8.45614 0.329825 9.11579 0.989474C9.77544 1.64912 10.1053 2.44211 10.1053 3.36842C10.1053 4.29474 9.77544 5.08772 9.11579 5.74737C8.45614 6.40702 7.66316 6.73684 6.73684 6.73684ZM13.0526 8.42105C13.2912 8.42105 13.4912 8.34035 13.6526 8.17895C13.814 8.01754 13.8947 7.81754 13.8947 7.57895C13.8947 7.34035 13.814 7.14035 13.6526 6.97895C13.4912 6.81754 13.2912 6.73684 13.0526 6.73684C12.814 6.73684 12.614 6.81754 12.4526 6.97895C12.2912 7.14035 12.2105 7.34035 12.2105 7.57895C12.2105 7.81754 12.2912 8.01754 12.4526 8.17895C12.614 8.34035 12.814 8.42105 13.0526 8.42105Z" fill="white"/>
</svg>
