<svg width="230" height="32" viewBox="0 0 230 32" fill="none" xmlns="http://www.w3.org/2000/svg">
<g filter="url(#filter0_i_1_6)">
<path d="M11.4 26.68C10.6533 26.68 10.08 26.5467 9.68 26.28C9.30667 25.9867 9.12 25.6667 9.12 25.32C9.12 24.9733 9.30667 24.6667 9.68 24.4C10.08 24.1067 10.6533 23.96 11.4 23.96C10.6267 23.96 10.0667 23.84 9.72 23.6C9.4 23.36 9.28 23.1067 9.36 22.84C9.44 22.5467 9.73333 22.3333 10.24 22.2C9.68 22.1467 9.26667 21.9733 9 21.68C8.73333 21.36 8.65333 21 8.76 20.6C8.89333 20.1733 9.24 19.8133 9.8 19.52C9.16 19.7067 8.69333 19.68 8.4 19.44C8.10667 19.2 8.04 18.8667 8.2 18.44C8.38667 18.0133 8.85333 17.6 9.6 17.2C8.98667 17.52 8.46667 17.64 8.04 17.56C7.61333 17.4533 7.32 17.24 7.16 16.92C7 16.6 7.01333 16.2533 7.2 15.88C7.38667 15.48 7.78667 15.12 8.4 14.8C7.52 15.2267 6.84 15.3333 6.36 15.12C5.90667 14.88 5.72 14.4933 5.8 13.96C5.90667 13.4267 6.38667 12.9467 7.24 12.52C6.68 12.8133 6.17333 12.88 5.72 12.72C5.29333 12.56 4.97333 12.28 4.76 11.88C4.57333 11.48 4.54667 11.0667 4.68 10.64C4.81333 10.1867 5.16 9.81333 5.72 9.52C5.08 9.86667 4.50667 9.96 4 9.8C3.52 9.61333 3.16 9.30667 2.92 8.88C2.70667 8.45333 2.68 8 2.84 7.52C3 7.01333 3.41333 6.6 4.08 6.28C3.36 6.62666 2.73333 6.72 2.2 6.56C1.66667 6.37333 1.28 6.05333 1.04 5.6C0.826667 5.12 0.813333 4.61333 1 4.08C1.16 3.52 1.58667 3.06667 2.28 2.72C2.97333 1.52 3.46667 0.986664 3.76 1.12C4.08 0.799998 4.42667 0.813332 4.8 1.16C5.17333 1.50667 5.36 2.18667 5.36 3.2C5.36 2.50667 5.57333 1.98666 6 1.64C6.45333 1.29333 6.96 1.12 7.52 1.12C8.10667 1.12 8.61333 1.29333 9.04 1.64C9.49333 1.98666 9.72 2.50667 9.72 3.2C10.5467 2.66666 11.2 2.46666 11.68 2.6C12.16 2.73333 12.36 3.05333 12.28 3.56C12.2 4.04 11.7333 4.54667 10.88 5.08C11.5467 4.76 12.1067 4.64 12.56 4.72C13.0133 4.77333 13.32 4.96 13.48 5.28C13.64 5.6 13.6133 5.97333 13.4 6.4C13.1867 6.8 12.7467 7.16 12.08 7.48C12.5333 7.26667 12.96 7.29333 13.36 7.56C13.7867 7.8 14.12 8.17333 14.36 8.68C14.6 9.16 14.6933 9.64 14.64 10.12C14.6133 10.6 14.3733 10.9467 13.92 11.16C14.4267 10.92 14.88 10.8533 15.28 10.96C15.2 10.56 15.24 10.1067 15.4 9.6C15.56 9.09333 15.8 8.64 16.12 8.24C16.44 7.81333 16.7867 7.50667 17.16 7.32C17.56 7.13333 17.96 7.14667 18.36 7.36C17.4267 6.88 16.88 6.4 16.72 5.92C16.5867 5.41333 16.76 5.08 17.24 4.92C17.72 4.73333 18.4267 4.88 19.36 5.36C19.0667 4.85333 19.04 4.36 19.28 3.88C19.5467 3.4 19.9333 3.02667 20.44 2.76C20.9733 2.46667 21.5067 2.34667 22.04 2.4C22.5733 2.42667 22.9867 2.69333 23.28 3.2C23.28 2.16 23.4267 1.46666 23.72 1.12C24.0133 0.773332 24.3067 0.746666 24.6 1.04C24.8933 1.33333 25.04 1.94666 25.04 2.88C25.0667 2.10667 25.3067 1.58667 25.76 1.32C26.24 1.05333 26.7067 1.05333 27.16 1.32C27.64 1.58667 27.9067 2.13333 27.96 2.96C28.6533 3.30666 29.04 3.81333 29.12 4.48C29.2267 5.12 29.12 5.76 28.8 6.4C28.48 7.04 28.0267 7.52 27.44 7.84C26.8533 8.16 26.2133 8.14667 25.52 7.8C26.0533 8.06667 26.3867 8.45333 26.52 8.96C26.6533 9.46667 26.64 10.0133 26.48 10.6C26.32 11.1867 26.0533 11.72 25.68 12.2C25.3067 12.6533 24.8667 12.9867 24.36 13.2C23.88 13.3867 23.3867 13.3467 22.88 13.08C23.6 13.4533 24.0133 13.84 24.12 14.24C24.2267 14.64 24.08 14.92 23.68 15.08C23.3067 15.24 22.7467 15.1467 22 14.8C22.6667 15.12 23.08 15.5067 23.24 15.96C23.4267 16.3867 23.4267 16.8 23.24 17.2C23.0533 17.5733 22.72 17.8267 22.24 17.96C21.7867 18.0667 21.2267 17.96 20.56 17.64C21.36 17.9867 21.84 18.4533 22 19.04C22.16 19.6267 22.0667 20.16 21.72 20.64C21.4 21.12 20.9067 21.36 20.24 21.36C20.6933 21.6 21.0133 21.9467 21.2 22.4C21.3867 22.8267 21.4267 23.28 21.32 23.76C21.2133 24.2133 20.96 24.6 20.56 24.92C20.1867 25.24 19.6667 25.4 19 25.4C19.5333 25.6667 19.8533 26.04 19.96 26.52C20.0667 26.9733 20.0133 27.4267 19.8 27.88C19.5867 28.3333 19.2533 28.6667 18.8 28.88C18.3733 29.0933 17.8933 29.0667 17.36 28.8C17.36 29.3067 17.1467 29.7067 16.72 30C16.32 30.32 15.8133 30.4933 15.2 30.52C14.6133 30.5733 14.0267 30.4667 13.44 30.2C12.8533 29.96 12.36 29.5467 11.96 28.96C11.56 28.3733 11.3733 27.6133 11.4 26.68ZM37.2384 23.32C36.4918 23.5333 35.8918 23.56 35.4384 23.4C34.9851 23.2133 34.7051 22.9467 34.5984 22.6C34.4918 22.2267 34.5851 21.8533 34.8784 21.48C35.1718 21.08 35.6918 20.7733 36.4384 20.56C35.7718 20.7467 35.2251 20.72 34.7984 20.48C34.3718 20.2133 34.0918 19.8533 33.9584 19.4C33.8251 18.92 33.8651 18.4667 34.0784 18.04C34.2918 17.5867 34.7318 17.2533 35.3984 17.04C34.6784 17.2533 34.0918 17.2667 33.6384 17.08C33.1851 16.8667 32.8918 16.56 32.7584 16.16C32.6518 15.76 32.7318 15.36 32.9984 14.96C33.2651 14.5333 33.7584 14.2133 34.4784 14C33.8118 14.1867 33.2651 14.2 32.8384 14.04C32.4384 13.88 32.1851 13.6267 32.0784 13.28C31.9718 12.9333 32.0518 12.5867 32.3184 12.24C32.5851 11.8667 33.0518 11.5867 33.7184 11.4C33.2384 11.5333 32.7984 11.4533 32.3984 11.16C31.9984 10.84 31.6651 10.4133 31.3984 9.88C31.1318 9.32 30.9584 8.74667 30.8784 8.16C30.8251 7.54667 30.8784 7 31.0384 6.52C31.1984 6.04 31.5184 5.73333 31.9984 5.6C31.2518 5.36 30.8251 5 30.7184 4.52C30.6118 4.04 30.7451 3.64 31.1184 3.32C31.4918 3 32.0384 2.96 32.7584 3.2C32.7584 2.56 32.9451 2.08 33.3184 1.76C33.6918 1.44 34.1184 1.28 34.5984 1.28C35.0784 1.28 35.5051 1.44 35.8784 1.76C36.2518 2.08 36.4384 2.56 36.4384 3.2C36.6518 2.74667 36.9584 2.49333 37.3584 2.44C37.7584 2.36 38.1451 2.41333 38.5184 2.6C38.8918 2.78666 39.1584 3.06667 39.3184 3.44C39.5051 3.81333 39.4784 4.22667 39.2384 4.68C39.8518 4.52 40.3718 4.65333 40.7984 5.08C41.2518 5.50666 41.5584 6.05333 41.7184 6.72C41.9051 7.36 41.9051 7.97333 41.7184 8.56C41.5318 9.12 41.1318 9.48 40.5184 9.64C40.8918 9.53333 41.2384 9.65333 41.5584 10C41.9051 10.32 42.1851 10.76 42.3984 11.32C42.6384 11.8533 42.7851 12.4133 42.8384 13C42.9184 13.5867 42.8918 14.1067 42.7584 14.56C42.6518 14.9867 42.4118 15.2533 42.0384 15.36C42.3851 15.2267 42.7051 15.1867 42.9984 15.24C43.3184 15.2933 43.5851 15.4133 43.7984 15.6C44.1718 15.3067 44.5451 15.1733 44.9184 15.2C44.2784 14.8267 44.0918 14.44 44.3584 14.04C44.6251 13.64 45.2651 13.5733 46.2784 13.84C45.7451 13.7067 45.3851 13.44 45.1984 13.04C45.0384 12.6133 45.0118 12.1867 45.1184 11.76C45.2251 11.3067 45.4518 10.9467 45.7984 10.68C46.1718 10.3867 46.6118 10.3067 47.1184 10.44C46.3718 10.2533 45.8784 9.85333 45.6384 9.24C45.4251 8.6 45.3984 7.93333 45.5584 7.24C45.7451 6.54667 46.0918 5.98667 46.5984 5.56C47.1051 5.10667 47.7318 4.98667 48.4784 5.2C48.1851 4.74667 48.1051 4.32 48.2384 3.92C48.3984 3.49333 48.6651 3.16 49.0384 2.92C49.4384 2.65333 49.8651 2.53333 50.3184 2.56C50.7718 2.56 51.1318 2.77333 51.3984 3.2C51.3984 2.58667 51.5718 2.12 51.9184 1.8C52.2651 1.48 52.6784 1.30667 53.1584 1.28C53.6384 1.22667 54.0784 1.32 54.4784 1.56C54.9051 1.77333 55.1851 2.14667 55.3184 2.68C55.2384 1.74666 55.3851 1.29333 55.7584 1.32C56.1318 1.34667 56.4118 1.90667 56.5984 3C57.5584 3.26667 58.1584 3.58667 58.3984 3.96C58.6384 4.30667 58.5584 4.56 58.1584 4.72C57.7851 4.88 57.1184 4.81333 56.1584 4.52C57.0918 4.78667 57.6518 5.16 57.8384 5.64C58.0518 6.12 57.9451 6.50667 57.5184 6.8C57.0918 7.09333 56.4118 7.09333 55.4784 6.8C55.9851 6.96 56.3318 7.26667 56.5184 7.72C56.7318 8.17333 56.8118 8.68 56.7584 9.24C56.7051 9.8 56.5451 10.3333 56.2784 10.84C56.0384 11.3467 55.7051 11.7333 55.2784 12C54.8784 12.2667 54.4118 12.32 53.8784 12.16C54.5451 12.3467 54.9584 12.76 55.1184 13.4C55.3051 14.0133 55.2918 14.6667 55.0784 15.36C54.8918 16.0267 54.5584 16.5733 54.0784 17C53.5984 17.4267 53.0251 17.5467 52.3584 17.36C52.9451 17.5467 53.3318 17.8667 53.5184 18.32C53.7318 18.7467 53.7718 19.1867 53.6384 19.64C53.5051 20.0933 53.2251 20.4533 52.7984 20.72C52.3984 20.9867 51.9051 21.04 51.3184 20.88C51.8784 21.04 52.2784 21.36 52.5184 21.84C52.7584 22.2933 52.8518 22.8133 52.7984 23.4C52.7451 23.9867 52.5851 24.5333 52.3184 25.04C52.0518 25.5467 51.6918 25.9467 51.2384 26.24C50.7851 26.5067 50.2784 26.5467 49.7184 26.36C50.3851 26.76 50.8251 27.1867 51.0384 27.64C51.2518 28.0667 51.2651 28.44 51.0784 28.76C50.8918 29.08 50.5584 29.2667 50.0784 29.32C49.5984 29.3733 49.0118 29.2 48.3184 28.8C48.3184 29.4933 48.1318 30.0133 47.7584 30.36C47.3851 30.7067 46.9584 30.88 46.4784 30.88C45.9984 30.88 45.5718 30.7067 45.1984 30.36C44.8251 30.0133 44.6384 29.4933 44.6384 28.8C44.6384 29.6 44.4784 30.1333 44.1584 30.4C43.8384 30.6667 43.5184 30.6667 43.1984 30.4C42.8784 30.1333 42.7184 29.6 42.7184 28.8C42.7184 29.5467 42.5318 30.08 42.1584 30.4C41.8118 30.72 41.3451 30.72 40.7584 30.4C40.1984 30.08 39.5984 29.36 38.9584 28.24C38.3451 27.0933 37.7718 25.4533 37.2384 23.32ZM61.8219 24.44C61.1552 24.44 60.6485 24.2933 60.3019 24C59.9819 23.68 59.8219 23.32 59.8219 22.92C59.8219 22.52 59.9819 22.1733 60.3019 21.88C60.6485 21.5867 61.1552 21.44 61.8219 21.44C60.9152 21.44 60.3019 21.2933 59.9819 21C59.6885 20.7067 59.6885 20.4133 59.9819 20.12C60.3019 19.8267 60.9152 19.68 61.8219 19.68C61.1552 19.68 60.6619 19.5333 60.3419 19.24C60.0219 18.92 59.8619 18.56 59.8619 18.16C59.8619 17.76 60.0219 17.4133 60.3419 17.12C60.6619 16.8 61.1552 16.64 61.8219 16.64C61.0485 16.64 60.4619 16.4133 60.0619 15.96C59.6885 15.48 59.5019 14.9333 59.5019 14.32C59.5019 13.7067 59.6885 13.1733 60.0619 12.72C60.4619 12.24 61.0485 12 61.8219 12C61.1285 12 60.6085 11.76 60.2619 11.28C59.9152 10.7733 59.7419 10.2 59.7419 9.56C59.7419 8.89333 59.9152 8.32 60.2619 7.84C60.6085 7.33333 61.1285 7.08 61.8219 7.08C61.1819 7.05333 60.7019 6.85333 60.3819 6.48C60.0885 6.08 59.9419 5.62666 59.9419 5.12C59.9419 4.61333 60.1019 4.17333 60.4219 3.8C60.7419 3.4 61.2219 3.2 61.8619 3.2C61.8619 2.4 62.0485 1.81333 62.4219 1.44C62.7952 1.04 63.2219 0.839999 63.7019 0.839999C64.1819 0.839999 64.6085 1.04 64.9819 1.44C65.3552 1.81333 65.5419 2.4 65.5419 3.2C65.5419 2.45333 65.7152 1.89333 66.0619 1.52C66.4352 1.14667 66.8485 0.96 67.3019 0.96C67.7552 0.96 68.1552 1.14667 68.5019 1.52C68.8752 1.89333 69.0619 2.45333 69.0619 3.2C69.8885 3.06667 70.4619 3.16 70.7819 3.48C71.1019 3.77333 71.1552 4.12 70.9419 4.52C70.7552 4.92 70.2485 5.18667 69.4219 5.32C70.3285 5.32 70.9685 5.57333 71.3419 6.08C71.7419 6.56 71.8752 7.09333 71.7419 7.68C71.6085 8.24 71.2219 8.65333 70.5819 8.92C71.0619 9 71.4485 9.24 71.7419 9.64C72.0619 10.0133 72.2485 10.4267 72.3019 10.88C72.8352 10.56 73.4485 10.4267 74.1419 10.48C74.8619 10.5333 75.4352 10.7867 75.8619 11.24C75.8885 10.7867 76.0752 10.4933 76.4219 10.36C76.1552 9.88 76.1685 9.37333 76.4619 8.84C76.7819 8.30667 77.3952 8.04 78.3019 8.04C77.5019 8.04 76.9019 7.8 76.5019 7.32C76.1285 6.84 75.9419 6.28 75.9419 5.64C75.9419 5 76.1285 4.44 76.5019 3.96C76.9019 3.48 77.5019 3.24 78.3019 3.24C78.3019 2.57333 78.4885 2.06667 78.8619 1.72C79.2352 1.37333 79.6619 1.2 80.1419 1.2C80.6219 1.17333 81.0485 1.33333 81.4219 1.68C81.8219 2.02667 82.0219 2.53333 82.0219 3.2C82.0219 2.42666 82.1685 1.84 82.4619 1.44C82.7552 1.04 83.0885 0.839999 83.4619 0.839999C83.8352 0.839999 84.1685 1.04 84.4619 1.44C84.7552 1.84 84.9019 2.42666 84.9019 3.2C85.3819 3.09333 85.7952 3.21333 86.1419 3.56C86.4885 3.88 86.7285 4.30667 86.8619 4.84C86.9952 5.37333 86.9819 5.88 86.8219 6.36C86.6885 6.81333 86.3819 7.10667 85.9019 7.24C86.6752 7.24 87.2485 7.50667 87.6219 8.04C87.9952 8.54667 88.1819 9.16 88.1819 9.88C88.1819 10.5733 87.9952 11.1867 87.6219 11.72C87.2485 12.2267 86.6752 12.48 85.9019 12.48C86.7019 12.48 87.2885 12.72 87.6619 13.2C88.0619 13.68 88.2619 14.24 88.2619 14.88C88.2619 15.52 88.0619 16.08 87.6619 16.56C87.2885 17.04 86.7019 17.28 85.9019 17.28C86.7019 17.28 87.2885 17.5333 87.6619 18.04C88.0619 18.5467 88.2619 19.1467 88.2619 19.84C88.2619 20.5067 88.0619 21.1067 87.6619 21.64C87.2885 22.1467 86.7019 22.4 85.9019 22.4C86.7552 22.4 87.3152 22.5333 87.5819 22.8C87.8752 23.04 87.8752 23.2933 87.5819 23.56C87.3152 23.8267 86.7552 23.96 85.9019 23.96C86.5152 23.96 86.9685 24.1333 87.2619 24.48C87.5819 24.8267 87.7419 25.2267 87.7419 25.68C87.7419 26.1067 87.5819 26.4933 87.2619 26.84C86.9685 27.16 86.5152 27.32 85.9019 27.32C86.1419 27.8533 86.1552 28.3333 85.9419 28.76C85.7285 29.16 85.4085 29.4533 84.9819 29.64C84.5552 29.8267 84.1152 29.8667 83.6619 29.76C83.2352 29.6533 82.9019 29.3333 82.6619 28.8C82.6885 29.4933 82.4752 30.0133 82.0219 30.36C81.5952 30.7333 81.0885 30.92 80.5019 30.92C79.9419 30.9467 79.4352 30.7867 78.9819 30.44C78.5552 30.12 78.3285 29.6133 78.3019 28.92C77.7685 28.92 77.3552 28.68 77.0619 28.2C76.7685 27.72 76.5819 27.16 76.5019 26.52C76.4485 25.8533 76.5152 25.2267 76.7019 24.64C76.8885 24.0267 77.2085 23.6 77.6619 23.36C76.8352 23.4933 76.1819 23.28 75.7019 22.72C75.2485 22.1333 75.0752 21.5067 75.1819 20.84C74.1952 21.16 73.2352 21.1467 72.3019 20.8C72.3552 21.12 72.2752 21.4 72.0619 21.64C71.8752 21.88 71.5952 22.0267 71.2219 22.08C71.7019 22.4267 71.7952 22.84 71.5019 23.32C71.2085 23.7733 70.5152 24 69.4219 24C70.4619 24 71.1419 24.1467 71.4619 24.44C71.8085 24.7333 71.8085 25.0267 71.4619 25.32C71.1419 25.6133 70.4619 25.76 69.4219 25.76C70.0619 25.76 70.5419 25.9067 70.8619 26.2C71.2085 26.4933 71.3819 26.84 71.3819 27.24C71.3819 27.64 71.2085 28 70.8619 28.32C70.5419 28.6133 70.0619 28.76 69.4219 28.76C69.4485 29.7733 69.3419 30.44 69.1019 30.76C68.8619 31.1067 68.6085 31.1067 68.3419 30.76C68.1019 30.44 67.9685 29.7867 67.9419 28.8C67.9419 29.44 67.7952 29.9067 67.5019 30.2C67.2085 30.52 66.8752 30.68 66.5019 30.68C66.1285 30.68 65.7952 30.52 65.5019 30.2C65.2085 29.9067 65.0619 29.44 65.0619 28.8C65.0619 29.84 64.9152 30.5333 64.6219 30.88C64.3285 31.2267 64.0352 31.2267 63.7419 30.88C63.4485 30.5333 63.3019 29.84 63.3019 28.8C63.3019 29.4933 63.2219 29.9867 63.0619 30.28C62.9019 30.6 62.7152 30.6267 62.5019 30.36C62.3152 30.0933 62.1419 29.4933 61.9819 28.56C61.8485 27.6 61.7952 26.2267 61.8219 24.44ZM92.7203 27.48C91.707 27.48 91.027 27.2933 90.6803 26.92C90.3336 26.5467 90.3336 26.1733 90.6803 25.8C91.027 25.4267 91.707 25.24 92.7203 25.24C92.0003 25.24 91.4536 25 91.0803 24.52C90.707 24.04 90.5203 23.4933 90.5203 22.88C90.5203 22.24 90.707 21.68 91.0803 21.2C91.4536 20.72 92.0003 20.48 92.7203 20.48C91.947 20.48 91.3603 20.2667 90.9603 19.84C90.587 19.4133 90.4003 18.9333 90.4003 18.4C90.4003 17.84 90.587 17.36 90.9603 16.96C91.3603 16.5333 91.947 16.32 92.7203 16.32C92.027 16.32 91.507 16.1333 91.1603 15.76C90.8136 15.3867 90.6403 14.96 90.6403 14.48C90.6403 14 90.8136 13.5733 91.1603 13.2C91.507 12.8267 92.027 12.64 92.7203 12.64C91.947 12.64 91.3603 12.44 90.9603 12.04C90.587 11.64 90.4003 11.1867 90.4003 10.68C90.4003 10.1467 90.587 9.68 90.9603 9.28C91.3603 8.88 91.947 8.68 92.7203 8.68C92.0803 8.68 91.587 8.45333 91.2403 8C90.9203 7.54667 90.7603 7.02667 90.7603 6.44C90.7603 5.85333 90.9203 5.33333 91.2403 4.88C91.587 4.42667 92.0803 4.2 92.7203 4.2C92.5603 3.61333 92.627 3.13333 92.9203 2.76C93.2136 2.38666 93.6003 2.13333 94.0803 2C94.5603 1.86666 95.027 1.89333 95.4803 2.08C95.9336 2.26667 96.2403 2.64 96.4003 3.2C96.4003 2.21333 96.547 1.56 96.8403 1.24C97.1336 0.893331 97.4136 0.893331 97.6803 1.24C97.9736 1.56 98.1203 2.21333 98.1203 3.2C98.5203 2.72 98.9336 2.46667 99.3603 2.44C99.8136 2.38667 100.187 2.49333 100.48 2.76C100.8 3.02667 100.987 3.38667 101.04 3.84C101.094 4.26667 100.92 4.72 100.52 5.2C101.107 4.82667 101.614 4.68 102.04 4.76C102.467 4.81333 102.774 5 102.96 5.32C103.174 5.64 103.214 6.01333 103.08 6.44C102.947 6.86667 102.587 7.25333 102 7.6C102.507 7.30667 103 7.28 103.48 7.52C103.96 7.73333 104.347 8.09333 104.64 8.6C104.96 9.08 105.107 9.58667 105.08 10.12C105.054 10.6533 104.8 11.08 104.32 11.4C104.64 11.1867 104.96 11.12 105.28 11.2C105.627 11.28 105.92 11.44 106.16 11.68C106.48 11.4667 106.827 11.4 107.2 11.48C106.987 11.0267 106.987 10.5467 107.2 10.04C107.44 9.50667 107.88 9.24 108.52 9.24C107.667 9.24 107.094 9.06667 106.8 8.72C106.534 8.34667 106.534 7.97333 106.8 7.6C107.094 7.22667 107.667 7.04 108.52 7.04C107.774 7.04 107.28 6.86667 107.04 6.52C106.8 6.17333 106.8 5.82667 107.04 5.48C107.28 5.13333 107.774 4.96 108.52 4.96C108.227 4.42667 108.174 3.93333 108.36 3.48C108.574 3.02667 108.894 2.69333 109.32 2.48C109.774 2.24 110.24 2.17333 110.72 2.28C111.2 2.36 111.587 2.66666 111.88 3.2C111.987 2.53333 112.254 2.06666 112.68 1.8C113.134 1.50667 113.6 1.41333 114.08 1.52C114.56 1.6 114.947 1.84 115.24 2.24C115.56 2.64 115.654 3.18667 115.52 3.88C116.054 3.88 116.48 4.08 116.8 4.48C117.147 4.85333 117.374 5.33333 117.48 5.92C117.587 6.48 117.587 7.04 117.48 7.6C117.374 8.16 117.147 8.64 116.8 9.04C116.48 9.41333 116.054 9.6 115.52 9.6C116.214 9.6 116.734 9.85333 117.08 10.36C117.454 10.84 117.64 11.4 117.64 12.04C117.64 12.6533 117.454 13.2 117.08 13.68C116.734 14.16 116.214 14.4 115.52 14.4C116.16 14.4 116.64 14.5467 116.96 14.84C117.307 15.1333 117.48 15.4667 117.48 15.84C117.48 16.2133 117.307 16.5467 116.96 16.84C116.64 17.1333 116.16 17.28 115.52 17.28C116.134 17.28 116.614 17.4667 116.96 17.84C117.334 18.2133 117.574 18.68 117.68 19.24C117.814 19.8 117.814 20.36 117.68 20.92C117.574 21.4533 117.334 21.9067 116.96 22.28C116.614 22.6533 116.134 22.84 115.52 22.84C116.48 22.84 117.12 22.9733 117.44 23.24C117.76 23.5067 117.76 23.7733 117.44 24.04C117.12 24.3067 116.48 24.44 115.52 24.44C116.294 24.44 116.867 24.6267 117.24 25C117.614 25.3467 117.8 25.76 117.8 26.24C117.8 26.6933 117.614 27.0933 117.24 27.44C116.867 27.7867 116.294 27.96 115.52 27.96C115.787 28.7067 115.774 29.28 115.48 29.68C115.214 30.0533 114.84 30.1867 114.36 30.08C113.907 29.9733 113.547 29.5467 113.28 28.8C113.147 29.36 112.787 29.72 112.2 29.88C111.614 30.0133 110.987 30.0133 110.32 29.88C109.654 29.72 109.094 29.44 108.64 29.04C108.187 28.64 108.027 28.16 108.16 27.6C107.414 28.08 106.827 28.28 106.4 28.2C106 28.0933 105.827 27.8267 105.88 27.4C105.96 26.9733 106.36 26.5067 107.08 26C106.44 26.4267 105.867 26.6 105.36 26.52C104.854 26.44 104.467 26.2133 104.2 25.84C103.96 25.44 103.894 24.9867 104 24.48C104.134 23.9733 104.52 23.52 105.16 23.12C104.654 23.44 104.107 23.4267 103.52 23.08C102.934 22.7333 102.467 22.2533 102.12 21.64C101.747 21.88 101.334 21.9467 100.88 21.84C101.147 22.24 101.32 22.7333 101.4 23.32C101.48 23.9067 101.467 24.4933 101.36 25.08C101.28 25.6667 101.094 26.16 100.8 26.56C100.534 26.96 100.174 27.16 99.7203 27.16C100.254 27.5333 100.52 27.92 100.52 28.32C100.52 28.72 100.334 29 99.9603 29.16C99.587 29.2933 99.1336 29.1733 98.6003 28.8C98.6003 29.44 98.4403 29.92 98.1203 30.24C97.8003 30.5867 97.427 30.76 97.0003 30.76C96.6003 30.76 96.2403 30.5867 95.9203 30.24C95.6003 29.92 95.4403 29.44 95.4403 28.8C95.4403 29.4667 95.2936 29.96 95.0003 30.28C94.7336 30.6267 94.4136 30.76 94.0403 30.68C93.667 30.6 93.347 30.3067 93.0803 29.8C92.8136 29.2667 92.6936 28.4933 92.7203 27.48ZM135.092 27.32C134.372 27.32 133.826 27.1333 133.452 26.76C133.079 26.3867 132.892 25.96 132.892 25.48C132.892 25 133.079 24.5733 133.452 24.2C133.826 23.8267 134.372 23.64 135.092 23.64C134.346 23.64 133.786 23.4667 133.412 23.12C133.039 22.7467 132.852 22.3333 132.852 21.88C132.852 21.4267 133.039 21.0267 133.412 20.68C133.786 20.3067 134.346 20.12 135.092 20.12C134.479 20.12 134.012 19.92 133.692 19.52C133.399 19.0933 133.252 18.6 133.252 18.04C133.252 17.48 133.399 17 133.692 16.6C134.012 16.1733 134.479 15.96 135.092 15.96C134.106 15.96 133.439 15.8 133.092 15.48C132.746 15.16 132.732 14.84 133.052 14.52C133.372 14.2 134.012 14.04 134.972 14.04C134.359 14.0667 133.866 13.8933 133.492 13.52C133.146 13.1467 132.919 12.6933 132.812 12.16C132.732 11.6267 132.786 11.1333 132.972 10.68C132.892 10.3067 132.852 9.88 132.852 9.4C132.852 9.98667 132.666 10.4533 132.292 10.8C131.919 11.1467 131.452 11.3733 130.892 11.48C130.359 11.5867 129.812 11.5867 129.252 11.48C128.719 11.3467 128.266 11.1067 127.892 10.76C127.546 10.4133 127.372 9.94667 127.372 9.36C126.679 9.36 126.159 9.22667 125.812 8.96C125.466 8.66667 125.292 8.33333 125.292 7.96C125.292 7.58667 125.466 7.25333 125.812 6.96C126.159 6.66667 126.679 6.52 127.372 6.52C126.546 6.52 125.986 6.32 125.692 5.92C125.426 5.49333 125.426 5.08 125.692 4.68C125.986 4.25333 126.546 4.04 127.372 4.04C125.986 3.42666 125.359 2.98666 125.492 2.72C125.599 2.42667 126.346 2.58667 127.732 3.2C127.732 2.32 127.879 1.74667 128.172 1.48C128.466 1.18666 128.759 1.18666 129.052 1.48C129.346 1.74667 129.492 2.32 129.492 3.2C129.492 2.45333 129.639 1.89333 129.932 1.52C130.252 1.14667 130.612 0.96 131.012 0.96C131.412 0.96 131.759 1.14667 132.052 1.52C132.372 1.89333 132.532 2.45333 132.532 3.2C132.532 2.58667 132.666 2.13333 132.932 1.84C133.226 1.52 133.559 1.36 133.932 1.36C134.332 1.36 134.666 1.52 134.932 1.84C135.226 2.13333 135.372 2.58667 135.372 3.2C135.372 2.24 135.586 1.61333 136.012 1.32C136.439 0.999999 136.866 0.999999 137.292 1.32C137.719 1.61333 137.932 2.24 137.932 3.2C137.932 2.53333 138.132 2.04 138.532 1.72C138.959 1.37333 139.439 1.2 139.972 1.2C140.532 1.2 141.026 1.37333 141.452 1.72C141.879 2.04 142.092 2.53333 142.092 3.2C142.092 2.42666 142.332 1.85333 142.812 1.48C143.292 1.08 143.839 0.879998 144.452 0.879998C145.092 0.879998 145.652 1.08 146.132 1.48C146.612 1.85333 146.852 2.42666 146.852 3.2C146.852 2.50667 147.026 1.98666 147.372 1.64C147.746 1.26666 148.159 1.08 148.612 1.08C149.092 1.08 149.506 1.26666 149.852 1.64C150.199 1.98666 150.372 2.50667 150.372 3.2C151.119 3.14667 151.679 3.24 152.052 3.48C152.452 3.72 152.666 4.02666 152.692 4.4C152.719 4.74667 152.559 5.08 152.212 5.4C151.866 5.69333 151.319 5.86667 150.572 5.92C151.372 5.92 151.906 6.10667 152.172 6.48C152.439 6.82667 152.439 7.18666 152.172 7.56C151.906 7.93333 151.372 8.12 150.572 8.12C150.839 8.62667 150.919 9.08 150.812 9.48C150.706 9.88 150.492 10.16 150.172 10.32C149.852 10.48 149.492 10.5067 149.092 10.4C148.719 10.2667 148.399 9.93333 148.132 9.4C148.132 10.2 147.906 10.76 147.452 11.08C147.026 11.4 146.572 11.4933 146.092 11.36C146.066 11.8133 145.906 12.2267 145.612 12.6C145.346 12.9733 144.999 13.2133 144.572 13.32C145.212 13.5867 145.386 13.9067 145.092 14.28C144.799 14.6533 144.052 14.84 142.852 14.84C143.546 14.84 144.052 15.0667 144.372 15.52C144.719 15.9733 144.892 16.4933 144.892 17.08C144.892 17.6667 144.719 18.1867 144.372 18.64C144.052 19.0933 143.546 19.32 142.852 19.32C143.866 19.32 144.532 19.48 144.852 19.8C145.199 20.12 145.199 20.44 144.852 20.76C144.532 21.08 143.866 21.24 142.852 21.24C143.492 21.24 143.959 21.3867 144.252 21.68C144.572 21.9467 144.732 22.2533 144.732 22.6C144.732 22.9467 144.572 23.2667 144.252 23.56C143.959 23.8267 143.492 23.96 142.852 23.96C143.812 23.96 144.452 24.1467 144.772 24.52C145.092 24.8933 145.092 25.2667 144.772 25.64C144.452 26.0133 143.812 26.2 142.852 26.2C143.812 26.2 144.439 26.3333 144.732 26.6C145.052 26.8667 145.052 27.1333 144.732 27.4C144.439 27.6667 143.812 27.8 142.852 27.8C142.986 28.3867 142.879 28.88 142.532 29.28C142.212 29.68 141.786 29.9467 141.252 30.08C140.719 30.2133 140.212 30.1867 139.732 30C139.252 29.7867 138.946 29.3867 138.812 28.8C138.812 29.5467 138.612 30.1067 138.212 30.48C137.839 30.8533 137.399 30.9867 136.892 30.88C136.412 30.8 135.986 30.4667 135.612 29.88C135.239 29.2933 135.066 28.44 135.092 27.32ZM158.324 29.08C158.191 29.48 157.937 29.7467 157.564 29.88C157.217 29.9867 156.844 29.9733 156.444 29.84C156.071 29.7067 155.764 29.4933 155.524 29.2C155.311 28.88 155.271 28.52 155.404 28.12C155.164 28.3333 154.844 28.3467 154.444 28.16C154.044 27.9733 153.631 27.68 153.204 27.28C152.804 26.88 152.444 26.44 152.124 25.96C151.831 25.4533 151.631 24.9867 151.524 24.56C151.444 24.1333 151.524 23.8267 151.764 23.64C151.044 23.7467 150.524 23.64 150.204 23.32C149.911 22.9733 149.857 22.6 150.044 22.2C150.231 21.7733 150.684 21.5067 151.404 21.4C151.004 21.4 150.697 21.2533 150.484 20.96C150.297 20.6667 150.191 20.3333 150.164 19.96C150.164 19.56 150.257 19.2133 150.444 18.92C150.657 18.6 150.964 18.44 151.364 18.44C150.937 18.36 150.644 18.12 150.484 17.72C150.351 17.32 150.324 16.8933 150.404 16.44C150.511 15.96 150.697 15.56 150.964 15.24C151.257 14.92 151.617 14.8 152.044 14.88C151.591 14.5867 151.337 14.24 151.284 13.84C151.231 13.44 151.297 13.0933 151.484 12.8C151.697 12.48 151.991 12.28 152.364 12.2C152.764 12.0933 153.191 12.1867 153.644 12.48C153.404 12.1333 153.337 11.8 153.444 11.48C153.551 11.1333 153.751 10.8667 154.044 10.68C154.337 10.4667 154.657 10.3733 155.004 10.4C155.351 10.4267 155.644 10.6133 155.884 10.96C155.697 10.4 155.711 9.98667 155.924 9.72C156.137 9.42667 156.404 9.32 156.724 9.4C157.071 9.48 157.351 9.8 157.564 10.36C157.484 9.93333 157.551 9.6 157.764 9.36C157.977 9.12 158.244 8.97333 158.564 8.92C158.911 8.84 159.231 8.88 159.524 9.04C159.817 9.2 160.004 9.48 160.084 9.88C160.084 9.48 160.271 9.18667 160.644 9C161.044 8.78666 161.497 8.68 162.004 8.68C162.511 8.68 162.951 8.78666 163.324 9C163.724 9.18667 163.924 9.48 163.924 9.88C164.031 9.32 164.284 8.93333 164.684 8.72C165.111 8.50667 165.551 8.45333 166.004 8.56C166.457 8.64 166.817 8.86666 167.084 9.24C167.377 9.58666 167.471 10.0533 167.364 10.64C167.551 10.2667 167.817 10.0667 168.164 10.04C168.537 10.0133 168.884 10.0933 169.204 10.28C169.551 10.44 169.791 10.68 169.924 11C170.084 11.32 170.057 11.6667 169.844 12.04C170.271 11.7467 170.697 11.6933 171.124 11.88C171.551 12.04 171.897 12.32 172.164 12.72C172.457 13.12 172.617 13.56 172.644 14.04C172.671 14.4933 172.471 14.8533 172.044 15.12C172.497 15.0933 172.871 15.2533 173.164 15.6C173.484 15.9467 173.711 16.4 173.844 16.96C174.004 17.4933 174.071 18.0533 174.044 18.64C174.017 19.2 173.884 19.68 173.644 20.08C173.431 20.48 173.097 20.7067 172.644 20.76C173.204 20.8667 173.577 21.1467 173.764 21.6C173.951 22.0267 173.991 22.5067 173.884 23.04C173.804 23.5467 173.577 23.9733 173.204 24.32C172.857 24.6667 172.417 24.7867 171.884 24.68C172.284 24.9467 172.497 25.2667 172.524 25.64C172.577 25.9867 172.497 26.3067 172.284 26.6C172.071 26.8933 171.791 27.0933 171.444 27.2C171.097 27.28 170.724 27.1867 170.324 26.92C170.564 27.2933 170.631 27.6533 170.524 28C170.417 28.32 170.204 28.5733 169.884 28.76C169.591 28.9467 169.257 29.0267 168.884 29C168.537 28.9733 168.257 28.7733 168.044 28.4C168.204 28.9067 168.124 29.3067 167.804 29.6C167.484 29.8933 167.111 30.0133 166.684 29.96C166.284 29.88 166.004 29.5733 165.844 29.04C165.951 29.68 165.831 30.12 165.484 30.36C165.137 30.6267 164.751 30.68 164.324 30.52C163.924 30.36 163.684 29.9733 163.604 29.36C163.657 30.5067 163.257 31.08 162.404 31.08C161.551 31.08 160.191 30.4133 158.324 29.08ZM164.644 22.8C164.351 22.7733 164.137 22.56 164.004 22.16C163.897 21.76 163.844 21.2933 163.844 20.76C163.871 20.2 163.951 19.7067 164.084 19.28C164.217 18.8533 164.417 18.6 164.684 18.52C164.417 18.52 164.151 18.3333 163.884 17.96C163.644 17.5867 163.444 17.16 163.284 16.68C163.151 16.1733 163.097 15.7333 163.124 15.36C162.884 15.5733 162.591 15.6533 162.244 15.6C161.897 15.5467 161.631 15.3733 161.444 15.08C161.417 15.2933 161.337 15.4267 161.204 15.48C161.071 15.5333 160.924 15.5067 160.764 15.4C160.844 15.7733 160.817 16.2133 160.684 16.72C160.577 17.2 160.404 17.6267 160.164 18C159.924 18.3733 159.657 18.56 159.364 18.56C159.684 18.64 159.884 18.8667 159.964 19.24C160.071 19.6133 160.057 19.9867 159.924 20.36C159.791 20.7067 159.551 20.88 159.204 20.88C159.497 20.8267 159.751 20.9867 159.964 21.36C160.204 21.7067 160.364 22.12 160.444 22.6C160.551 23.08 160.564 23.4933 160.484 23.84C160.857 23.6267 161.417 23.5067 162.164 23.48C162.911 23.4533 163.737 23.2267 164.644 22.8ZM178.228 28.12C177.535 28.12 177.015 27.9467 176.668 27.6C176.321 27.2533 176.148 26.8533 176.148 26.4C176.148 25.92 176.321 25.5067 176.668 25.16C177.015 24.7867 177.535 24.6 178.228 24.6C177.295 24.6 176.668 24.44 176.348 24.12C176.055 23.8 176.055 23.48 176.348 23.16C176.668 22.84 177.295 22.68 178.228 22.68C177.401 22.68 176.841 22.5333 176.548 22.24C176.281 21.92 176.281 21.6 176.548 21.28C176.841 20.96 177.401 20.8 178.228 20.8C177.561 20.8 177.055 20.5733 176.708 20.12C176.361 19.6667 176.188 19.1467 176.188 18.56C176.188 17.9733 176.361 17.4533 176.708 17C177.055 16.5467 177.561 16.32 178.228 16.32C177.428 16.32 176.828 16.1733 176.428 15.88C176.055 15.5867 175.868 15.2533 175.868 14.88C175.868 14.5067 176.055 14.1733 176.428 13.88C176.828 13.5867 177.428 13.44 178.228 13.44C177.295 13.44 176.668 13.2267 176.348 12.8C176.028 12.3733 176.028 11.9467 176.348 11.52C176.668 11.0933 177.295 10.88 178.228 10.88C177.588 10.88 177.108 10.64 176.788 10.16C176.468 9.65333 176.308 9.08 176.308 8.44C176.308 7.77333 176.468 7.2 176.788 6.72C177.108 6.21333 177.588 5.96 178.228 5.96C177.828 5.64 177.641 5.25333 177.668 4.8C177.721 4.34667 177.895 3.94667 178.188 3.6C178.481 3.22667 178.841 2.98667 179.268 2.88C179.695 2.77333 180.108 2.88 180.508 3.2C180.508 2.58667 180.668 2.12 180.988 1.8C181.335 1.48 181.735 1.32 182.188 1.32C182.641 1.32 183.028 1.48 183.348 1.8C183.695 2.12 183.868 2.58667 183.868 3.2C183.868 2.64 184.055 2.2 184.428 1.88C184.801 1.53333 185.268 1.30667 185.828 1.2C186.388 1.06667 186.948 1.06667 187.508 1.2C188.068 1.30667 188.535 1.53333 188.908 1.88C189.281 2.2 189.468 2.64 189.468 3.2C189.548 2.42666 189.788 1.86666 190.188 1.52C190.615 1.14667 191.081 0.986666 191.588 1.04C192.095 1.09333 192.521 1.33333 192.868 1.76C193.241 2.18666 193.388 2.78666 193.308 3.56C193.548 2.70667 193.868 2.18667 194.268 2C194.695 1.81333 195.028 1.90667 195.268 2.28C195.535 2.65333 195.548 3.26667 195.308 4.12C195.708 3.48 196.175 3.10667 196.708 3C197.241 2.89333 197.735 2.97333 198.188 3.24C198.641 3.50667 198.935 3.90666 199.068 4.44C199.228 4.94667 199.121 5.52 198.748 6.16C199.281 5.84 199.815 5.81333 200.348 6.08C200.881 6.32 201.321 6.72 201.668 7.28C202.015 7.81333 202.175 8.37333 202.148 8.96C202.148 9.54667 201.881 10.0133 201.348 10.36C202.281 10.1733 202.921 10.2 203.268 10.44C203.641 10.6533 203.695 10.9333 203.428 11.28C203.188 11.6267 202.615 11.8933 201.708 12.08C202.268 12.08 202.721 12.2667 203.068 12.64C203.441 12.9867 203.681 13.44 203.788 14C203.921 14.5333 203.935 15.08 203.828 15.64C203.721 16.2 203.495 16.6667 203.148 17.04C202.828 17.4133 202.388 17.6133 201.828 17.64C202.628 17.6667 203.161 17.8667 203.428 18.24C203.695 18.5867 203.681 18.9333 203.388 19.28C203.095 19.6 202.548 19.7467 201.748 19.72C202.308 19.9067 202.628 20.3067 202.708 20.92C202.815 21.5333 202.748 22.1867 202.508 22.88C202.268 23.5467 201.921 24.0933 201.468 24.52C201.015 24.92 200.495 25.0133 199.908 24.8C200.575 25.4133 200.908 25.9467 200.908 26.4C200.908 26.8533 200.681 27.0933 200.228 27.12C199.801 27.1467 199.255 26.84 198.588 26.2C198.775 26.6 198.721 27 198.428 27.4C198.161 27.7733 197.761 28.12 197.228 28.44C196.721 28.7333 196.175 28.96 195.588 29.12C195.001 29.28 194.468 29.32 193.988 29.24C193.508 29.16 193.188 28.9333 193.028 28.56C193.081 29.1733 192.975 29.6533 192.708 30C192.441 30.32 192.121 30.4933 191.748 30.52C191.375 30.5733 191.028 30.4533 190.708 30.16C190.388 29.8667 190.201 29.4133 190.148 28.8C190.148 29.3333 189.948 29.76 189.548 30.08C189.148 30.4267 188.641 30.6533 188.028 30.76C187.441 30.8667 186.841 30.8667 186.228 30.76C185.641 30.6533 185.135 30.4267 184.708 30.08C184.308 29.76 184.108 29.3333 184.108 28.8C184.108 29.3067 183.908 29.7067 183.508 30C183.108 30.2933 182.615 30.4667 182.028 30.52C181.441 30.6 180.841 30.56 180.228 30.4C179.641 30.2667 179.148 30.0133 178.748 29.64C178.375 29.2667 178.201 28.76 178.228 28.12ZM185.828 21.64C186.308 21.64 186.641 21.84 186.828 22.24C187.015 21.8667 187.228 21.7867 187.468 22C187.735 22.1867 187.868 22.6533 187.868 23.4C187.868 22.7867 187.975 22.36 188.188 22.12C188.401 21.88 188.615 21.84 188.828 22C189.068 22.1333 189.215 22.4533 189.268 22.96C189.321 22.48 189.561 22.1467 189.988 21.96C190.415 21.7733 190.815 21.76 191.188 21.92C191.081 21.52 191.121 21.1067 191.308 20.68C191.495 20.2533 191.761 19.8933 192.108 19.6C192.455 19.28 192.828 19.1333 193.228 19.16C192.908 18.92 192.681 18.5867 192.548 18.16C192.415 17.7333 192.388 17.2933 192.468 16.84C192.548 16.3867 192.721 16 192.988 15.68C193.255 15.36 193.628 15.2 194.108 15.2C193.495 15.2267 193.055 15.0667 192.788 14.72C192.521 14.3467 192.428 13.9467 192.508 13.52C192.588 13.0667 192.855 12.7333 193.308 12.52C192.721 12.5733 192.335 12.4133 192.148 12.04C191.961 11.6667 192.041 11.2933 192.388 10.92C192.095 11 191.868 10.9467 191.708 10.76C191.548 10.5467 191.521 10.28 191.628 9.96C191.228 10.2533 190.761 10.3067 190.228 10.12C189.721 9.90667 189.441 9.53333 189.388 9C189.281 9.56 189.015 9.89333 188.588 10C188.188 10.1067 187.855 10 187.588 9.68C187.588 9.94667 187.508 10.1467 187.348 10.28C187.188 10.4133 186.988 10.4267 186.748 10.32C186.535 10.4533 186.228 10.52 185.828 10.52C186.308 10.52 186.668 10.7333 186.908 11.16C187.148 11.5867 187.268 12.0933 187.268 12.68C187.268 13.24 187.148 13.7333 186.908 14.16C186.668 14.5867 186.308 14.8 185.828 14.8C186.308 14.8 186.655 15.0267 186.868 15.48C187.108 15.9067 187.228 16.4 187.228 16.96C187.228 17.52 187.108 18.0267 186.868 18.48C186.655 18.9067 186.308 19.12 185.828 19.12C186.521 19.12 186.988 19.3333 187.228 19.76C187.468 20.16 187.468 20.5733 187.228 21C186.988 21.4267 186.521 21.64 185.828 21.64ZM213.598 29.08C213.464 29.48 213.211 29.7467 212.838 29.88C212.491 29.9867 212.118 29.9733 211.718 29.84C211.344 29.7067 211.038 29.4933 210.798 29.2C210.584 28.88 210.544 28.52 210.678 28.12C210.438 28.3333 210.117 28.3467 209.717 28.16C209.318 27.9733 208.904 27.68 208.478 27.28C208.078 26.88 207.718 26.44 207.398 25.96C207.104 25.4533 206.904 24.9867 206.798 24.56C206.718 24.1333 206.798 23.8267 207.038 23.64C206.318 23.7467 205.798 23.64 205.478 23.32C205.184 22.9733 205.131 22.6 205.318 22.2C205.504 21.7733 205.958 21.5067 206.678 21.4C206.278 21.4 205.971 21.2533 205.757 20.96C205.571 20.6667 205.464 20.3333 205.438 19.96C205.438 19.56 205.531 19.2133 205.718 18.92C205.931 18.6 206.238 18.44 206.638 18.44C206.211 18.36 205.918 18.12 205.757 17.72C205.624 17.32 205.598 16.8933 205.678 16.44C205.784 15.96 205.971 15.56 206.238 15.24C206.531 14.92 206.891 14.8 207.318 14.88C206.864 14.5867 206.611 14.24 206.558 13.84C206.504 13.44 206.571 13.0933 206.758 12.8C206.971 12.48 207.264 12.28 207.638 12.2C208.038 12.0933 208.464 12.1867 208.918 12.48C208.678 12.1333 208.611 11.8 208.718 11.48C208.824 11.1333 209.024 10.8667 209.318 10.68C209.611 10.4667 209.931 10.3733 210.278 10.4C210.624 10.4267 210.918 10.6133 211.158 10.96C210.971 10.4 210.984 9.98667 211.198 9.72C211.411 9.42667 211.678 9.32 211.998 9.4C212.344 9.48 212.624 9.8 212.838 10.36C212.758 9.93333 212.824 9.6 213.038 9.36C213.251 9.12 213.518 8.97333 213.838 8.92C214.184 8.84 214.504 8.88 214.798 9.04C215.091 9.2 215.278 9.48 215.358 9.88C215.358 9.48 215.544 9.18667 215.918 9C216.318 8.78666 216.771 8.68 217.278 8.68C217.784 8.68 218.224 8.78666 218.598 9C218.998 9.18667 219.198 9.48 219.198 9.88C219.304 9.32 219.558 8.93333 219.958 8.72C220.384 8.50667 220.824 8.45333 221.278 8.56C221.731 8.64 222.091 8.86666 222.358 9.24C222.651 9.58666 222.744 10.0533 222.638 10.64C222.824 10.2667 223.091 10.0667 223.438 10.04C223.811 10.0133 224.158 10.0933 224.478 10.28C224.824 10.44 225.064 10.68 225.198 11C225.358 11.32 225.331 11.6667 225.118 12.04C225.544 11.7467 225.971 11.6933 226.398 11.88C226.824 12.04 227.171 12.32 227.438 12.72C227.731 13.12 227.891 13.56 227.918 14.04C227.944 14.4933 227.744 14.8533 227.318 15.12C227.771 15.0933 228.144 15.2533 228.438 15.6C228.758 15.9467 228.984 16.4 229.118 16.96C229.278 17.4933 229.344 18.0533 229.318 18.64C229.291 19.2 229.158 19.68 228.918 20.08C228.704 20.48 228.371 20.7067 227.918 20.76C228.478 20.8667 228.851 21.1467 229.038 21.6C229.224 22.0267 229.264 22.5067 229.158 23.04C229.078 23.5467 228.851 23.9733 228.478 24.32C228.131 24.6667 227.691 24.7867 227.158 24.68C227.558 24.9467 227.771 25.2667 227.798 25.64C227.851 25.9867 227.771 26.3067 227.558 26.6C227.344 26.8933 227.064 27.0933 226.718 27.2C226.371 27.28 225.998 27.1867 225.598 26.92C225.838 27.2933 225.904 27.6533 225.798 28C225.691 28.32 225.478 28.5733 225.158 28.76C224.864 28.9467 224.531 29.0267 224.158 29C223.811 28.9733 223.531 28.7733 223.318 28.4C223.478 28.9067 223.398 29.3067 223.078 29.6C222.758 29.8933 222.384 30.0133 221.958 29.96C221.558 29.88 221.278 29.5733 221.118 29.04C221.224 29.68 221.104 30.12 220.758 30.36C220.411 30.6267 220.024 30.68 219.598 30.52C219.198 30.36 218.958 29.9733 218.878 29.36C218.931 30.5067 218.531 31.08 217.678 31.08C216.824 31.08 215.464 30.4133 213.598 29.08ZM219.918 22.8C219.624 22.7733 219.411 22.56 219.278 22.16C219.171 21.76 219.118 21.2933 219.118 20.76C219.144 20.2 219.224 19.7067 219.358 19.28C219.491 18.8533 219.691 18.6 219.958 18.52C219.691 18.52 219.424 18.3333 219.158 17.96C218.918 17.5867 218.718 17.16 218.558 16.68C218.424 16.1733 218.371 15.7333 218.398 15.36C218.158 15.5733 217.864 15.6533 217.518 15.6C217.171 15.5467 216.904 15.3733 216.718 15.08C216.691 15.2933 216.611 15.4267 216.478 15.48C216.344 15.5333 216.198 15.5067 216.038 15.4C216.118 15.7733 216.091 16.2133 215.958 16.72C215.851 17.2 215.678 17.6267 215.438 18C215.198 18.3733 214.931 18.56 214.638 18.56C214.958 18.64 215.158 18.8667 215.238 19.24C215.344 19.6133 215.331 19.9867 215.198 20.36C215.064 20.7067 214.824 20.88 214.478 20.88C214.771 20.8267 215.024 20.9867 215.238 21.36C215.478 21.7067 215.638 22.12 215.718 22.6C215.824 23.08 215.838 23.4933 215.758 23.84C216.131 23.6267 216.691 23.5067 217.438 23.48C218.184 23.4533 219.011 23.2267 219.918 22.8Z" fill="white"/>
</g>
<defs>
<filter id="filter0_i_1_6" x="0.720001" y="0.600006" width="228.637" height="34.8" filterUnits="userSpaceOnUse" color-interpolation-filters="sRGB">
<feFlood flood-opacity="0" result="BackgroundImageFix"/>
<feBlend mode="normal" in="SourceGraphic" in2="BackgroundImageFix" result="shape"/>
<feColorMatrix in="SourceAlpha" type="matrix" values="0 0 0 0 0 0 0 0 0 0 0 0 0 0 0 0 0 0 127 0" result="hardAlpha"/>
<feOffset dy="4"/>
<feGaussianBlur stdDeviation="2"/>
<feComposite in2="hardAlpha" operator="arithmetic" k2="-1" k3="1"/>
<feColorMatrix type="matrix" values="0 0 0 0 0 0 0 0 0 0 0 0 0 0 0 0 0 0 0.25 0"/>
<feBlend mode="normal" in2="shape" result="effect1_innerShadow_1_6"/>
</filter>
</defs>
</svg>
